<svg width="215" height="108" viewBox="0 0 215 108" fill="none" xmlns="http://www.w3.org/2000/svg">
<rect width="215" height="108" fill="white"/>
<path d="M27.9079 33.6603V34.8608C26.2272 34.9009 24.942 35.0609 24.0522 35.3411C23.2118 35.5812 22.6434 36.0614 22.3468 36.7817C22.0502 37.462 21.9019 38.5425 21.9019 40.0232V69.7967C21.9019 71.2374 22.0502 72.3179 22.3468 73.0382C22.6434 73.7585 23.2118 74.2387 24.0522 74.4789C24.942 74.719 26.2272 74.879 27.9079 74.9591V76.1596C26.771 76.0796 25.3374 76.0396 23.6073 76.0396C21.9266 75.9995 20.2212 75.9795 18.491 75.9795C16.5632 75.9795 14.7589 75.9995 13.0782 76.0396C11.3975 76.0396 10.0381 76.0796 9 76.1596V74.9591C10.6807 74.879 11.9412 74.719 12.7816 74.4789C13.6714 74.2387 14.2646 73.7585 14.5612 73.0382C14.8577 72.3179 15.006 71.2374 15.006 69.7967V40.0232C15.006 38.5425 14.8577 37.462 14.5612 36.7817C14.2646 36.0614 13.6714 35.5812 12.7816 35.3411C11.9412 35.0609 10.6807 34.9009 9 34.8608V33.6603C10.0381 33.7003 11.3975 33.7403 13.0782 33.7804C14.7589 33.8204 16.5632 33.8404 18.491 33.8404C20.2212 33.8404 21.9266 33.8204 23.6073 33.7804C25.3374 33.7403 26.771 33.7003 27.9079 33.6603Z" fill="#0003FF"/>
<path d="M187.575 33C190.047 33 191.925 33.2401 193.21 33.7203C194.496 34.1605 195.633 34.6608 196.621 35.221C197.214 35.5011 197.684 35.7212 198.03 35.8813C198.425 36.0014 198.796 36.0614 199.142 36.0614C199.637 36.0614 199.983 35.8413 200.18 35.4011C200.427 34.9609 200.625 34.3006 200.773 33.4202H202.479C202.429 34.1005 202.355 34.9209 202.256 35.8813C202.207 36.8017 202.158 38.0423 202.108 39.603C202.108 41.1237 202.108 43.1446 202.108 45.6658H200.403C200.254 43.7449 199.735 41.904 198.846 40.1432C197.956 38.3824 196.646 36.9418 194.916 35.8213C193.235 34.7008 191.011 34.1405 188.242 34.1405C185.622 34.1405 183.447 34.7808 181.717 36.0614C180.037 37.342 179.196 39.0227 179.196 41.1037C179.196 42.9045 179.765 44.4252 180.902 45.6658C182.039 46.8663 183.546 47.9668 185.425 48.9673C187.353 49.9277 189.429 50.9682 191.653 52.0887C194.224 53.3693 196.498 54.6498 198.475 55.9304C200.502 57.171 202.083 58.5516 203.22 60.0723C204.407 61.593 205 63.4338 205 65.5948C205 68.156 204.283 70.2769 202.85 71.9577C201.416 73.6385 199.513 74.899 197.14 75.7394C194.767 76.5798 192.148 77 189.28 77C186.661 77 184.584 76.7599 183.052 76.2797C181.52 75.7995 180.21 75.2992 179.122 74.779C178.035 74.2187 177.194 73.9386 176.601 73.9386C176.107 73.9386 175.736 74.1587 175.489 74.5989C175.291 75.0391 175.118 75.6994 174.97 76.5798H173.264C173.363 75.7394 173.413 74.759 173.413 73.6385C173.462 72.4779 173.487 70.9773 173.487 69.1364C173.536 67.2956 173.561 64.9745 173.561 62.1733H175.266C175.464 64.5744 176.008 66.8154 176.898 68.8963C177.837 70.9773 179.246 72.658 181.124 73.9386C183.052 75.1792 185.598 75.7995 188.761 75.7995C190.393 75.7995 191.925 75.5393 193.359 75.0191C194.842 74.4588 196.053 73.5985 196.992 72.4379C197.931 71.2374 198.401 69.6967 198.401 67.8158C198.401 66.1751 197.906 64.7544 196.918 63.5539C195.979 62.3133 194.644 61.1728 192.914 60.1323C191.184 59.0518 189.157 57.9513 186.834 56.8308C184.51 55.6703 182.335 54.4898 180.308 53.2892C178.282 52.0887 176.65 50.708 175.415 49.1473C174.228 47.5466 173.635 45.6257 173.635 43.3847C173.635 41.0236 174.278 39.0828 175.563 37.5621C176.898 36.0014 178.628 34.8608 180.753 34.1405C182.879 33.3802 185.153 33 187.575 33Z" fill="#0003FF"/>
<path fill-rule="evenodd" clip-rule="evenodd" d="M203 17H9V13H203V17Z" fill="#0003FF"/>
<path fill-rule="evenodd" clip-rule="evenodd" d="M203 22H9V20H203V22Z" fill="#0003FF"/>
<path fill-rule="evenodd" clip-rule="evenodd" d="M203 87H9V85H203V87Z" fill="#0003FF"/>
<path fill-rule="evenodd" clip-rule="evenodd" d="M203 94H9V90H203V94Z" fill="#0003FF"/>
<path fill-rule="evenodd" clip-rule="evenodd" d="M38.2048 33.7804C36.524 33.7403 35.1647 33.7003 34.1266 33.6603V34.8608C35.8073 34.9009 37.0678 35.0609 37.9082 35.3411C38.7979 35.5812 39.3911 36.0614 39.6877 36.7817C39.9843 37.462 40.1326 38.5425 40.1326 40.0232V69.7967C40.1326 71.2374 39.9843 72.3179 39.6877 73.0382C39.3911 73.7585 38.7979 74.2387 37.9082 74.4789C37.0678 74.719 35.8073 74.879 34.1266 74.9591V76.1596C35.1647 76.0796 36.524 76.0396 38.2048 76.0396C39.8855 75.9995 41.5909 75.9795 43.321 75.9795C46.3858 75.9795 49.0057 76.0196 51.1808 76.0996C53.3558 76.1396 54.9871 76.1596 56.0746 76.1596C59.782 76.1596 62.9704 75.6594 65.6398 74.6589C68.3091 73.6585 70.3359 72.2979 71.72 70.5771C73.1535 68.8163 73.8703 66.7954 73.8703 64.5143C73.8703 62.8736 73.4254 61.3129 72.5356 59.8322C71.6458 58.3515 70.0887 57.0709 67.8642 55.9904C65.6892 54.8699 62.6491 54.1096 58.7439 53.7094V53.5894C61.5122 52.9091 63.7119 52.0286 65.3432 50.9482C67.0239 49.8276 68.2103 48.6071 68.9023 47.2865C69.6438 45.9259 70.0146 44.5452 70.0146 43.1446C70.0146 40.3834 68.7046 38.1223 66.0847 36.3615C63.4648 34.6007 59.5596 33.7203 54.3692 33.7203C53.4794 33.7203 51.9717 33.7403 49.8461 33.7804C47.7205 33.8204 45.496 33.8404 43.1727 33.8404C41.5414 33.8404 39.8855 33.8204 38.2048 33.7804ZM48.0665 35.8813C48.7586 35.201 50.2416 34.8608 52.5155 34.8608C56.2229 34.8608 58.8675 35.6212 60.4494 37.1419C62.0806 38.6226 62.8963 40.8436 62.8963 43.8049C62.8963 45.5257 62.5997 47.1464 62.0065 48.6671C61.4133 50.1478 60.3258 51.3483 58.7439 52.2688C57.1621 53.1492 54.9129 53.5894 51.9964 53.5894H47.0285V40.0232C47.0285 37.9422 47.3745 36.5616 48.0665 35.8813ZM47.0285 54.6098H45.6196V54.1296V53.5894H47.0285V54.6098ZM47.0285 54.6098H53.2569C57.953 54.6098 61.3144 55.4502 63.3412 57.131C65.4173 58.8117 66.4554 61.1928 66.4554 64.2742C66.4554 67.6357 65.3432 70.2369 63.1187 72.0778C60.9437 73.8786 57.434 74.779 52.5896 74.779C51.0572 74.779 49.8955 74.6589 49.1046 74.4188C48.3137 74.1787 47.7699 73.6985 47.4733 72.9782C47.1767 72.2578 47.0285 71.1974 47.0285 69.7967V54.6098Z" fill="#0003FF"/>
<path fill-rule="evenodd" clip-rule="evenodd" d="M116.818 33.6603C116.62 35.0609 116.472 36.4216 116.373 37.7422C116.324 39.0628 116.299 40.0632 116.299 40.7435C116.299 41.4638 116.324 42.1642 116.373 42.8445C116.423 43.4848 116.472 44.025 116.521 44.4652H114.816C114.519 42.1041 114.099 40.2433 113.555 38.8827C113.012 37.482 112.073 36.5016 110.738 35.9413C109.453 35.3411 107.5 35.0409 104.88 35.0409H98.7258C97.0451 35.0409 95.7598 35.161 94.87 35.4011C94.0297 35.6012 93.4612 36.0614 93.1646 36.7817C92.868 37.462 92.7197 38.5425 92.7197 40.0232V54.1896H90.4952V54.7899V55.3902H92.7197V69.7967C92.7197 71.2374 92.868 72.3179 93.1646 73.0382C93.4612 73.7585 94.0297 74.2387 94.87 74.4789C95.7598 74.6789 97.0451 74.779 98.7258 74.779H104.139C107.253 74.779 109.601 74.4388 111.183 73.7585C112.814 73.0782 113.976 71.9777 114.668 70.457C115.409 68.8963 115.953 66.7954 116.299 64.1542H118.004C117.856 65.2346 117.782 66.6753 117.782 68.4761C117.782 69.2365 117.807 70.337 117.856 71.7776C117.955 73.1783 118.103 74.6389 118.301 76.1596C115.78 76.0796 112.938 76.0396 109.774 76.0396C106.61 75.9995 103.793 75.9795 101.321 75.9795H97.0945C95.4138 75.9795 93.5848 75.9995 91.6075 76.0396C89.6302 76.0396 87.6282 76.0596 85.6014 76.0996C83.5747 76.0996 81.6468 76.1196 79.8178 76.1596V74.9591C81.4985 74.879 82.7591 74.719 83.5994 74.4789C84.4892 74.2387 85.0824 73.7585 85.379 73.0382C85.6756 72.3179 85.8239 71.2374 85.8239 69.7967V40.0232C85.8239 38.5425 85.6756 37.462 85.379 36.7817C85.0824 36.0614 84.4892 35.5812 83.5994 35.3411C82.7591 35.0609 81.4985 34.9009 79.8178 34.8608V33.6603C81.6468 33.7003 83.5747 33.7403 85.6014 33.7804C87.6282 33.7804 89.6302 33.8004 91.6075 33.8404H97.0945H101.321H109.032C111.949 33.8004 114.544 33.7403 116.818 33.6603ZM97.6135 55.3902H92.7197V54.1896H97.6135V55.3902ZM97.6135 55.3902C99.7885 55.3902 101.321 55.7904 102.211 56.5907C103.15 57.3511 103.743 58.3515 103.99 59.5921C104.287 60.7926 104.534 62.0332 104.732 63.3138H106.437C106.239 61.0327 106.116 59.292 106.066 58.0914C106.017 56.8909 105.992 55.7904 105.992 54.7899C105.992 53.7895 105.968 52.6889 105.918 51.4884C105.918 50.2879 106.017 48.5471 106.215 46.266H104.509C104.361 46.9864 104.213 47.8067 104.064 48.7271C103.916 49.6075 103.644 50.4679 103.249 51.3083C102.853 52.1487 102.211 52.849 101.321 53.4093C100.481 53.9295 99.2448 54.1896 97.6135 54.1896H104.064V54.7899V55.3902H97.6135Z" fill="#0003FF"/>
<path d="M104.064 54.7899V54.1896H97.6135V55.3902H104.064V54.7899Z" fill="#0003FF"/>
<path d="M90.4952 54.7899V55.3902H92.7197V54.1896H90.4952V54.7899Z" fill="#0003FF"/>
<path d="M45.6196 54.1296V54.6098H47.0285V53.5894H45.6196V54.1296Z" fill="#0003FF"/>
<path d="M151.353 59.8718H133.61L132.564 62.0723H152.37L151.353 59.8718Z" fill="#0003FF"/>
<path d="M163.93 71.1173L145.838 33.3602H145.245H144.652L127.227 69.7367C126.386 71.5375 125.447 72.8181 124.409 73.5784C123.371 74.2988 122.358 74.759 121.369 74.9591V76.1596C122.11 76.0796 122.901 76.0396 123.742 76.0396C124.631 75.9995 125.694 75.9795 126.93 75.9795C128.215 75.9795 129.599 75.9995 131.082 76.0396C132.615 76.0396 134.073 76.0796 135.457 76.1596V74.9591C133.925 74.9191 132.64 74.759 131.601 74.4789C130.613 74.1987 129.896 73.7385 129.451 73.0982C129.056 72.4579 128.932 71.5975 129.08 70.5171C129.229 69.3965 129.698 68.0359 130.489 66.4352L132.564 62.0723L133.61 59.8718L142.607 40.9526L151.353 59.8718L152.37 62.0723L155.996 69.9168C156.985 71.9577 157.133 73.2983 156.441 73.9386C155.749 74.5389 154.143 74.879 151.622 74.9591V76.1596C152.66 76.0796 154.019 76.0396 155.7 76.0396C157.38 75.9995 159.185 75.9795 161.113 75.9795C162.546 75.9795 163.98 75.9995 165.413 76.0396C166.847 76.0396 168.058 76.0796 169.047 76.1596V74.9591C168.256 74.9191 167.391 74.6589 166.451 74.1787C165.512 73.6585 164.672 72.638 163.93 71.1173Z" fill="#0003FF"/>
</svg>
